<?xml version="1.0" encoding="iso-8859-1"?>
<!-- Generator: Adobe Illustrator 19.0.0, SVG Export Plug-In . SVG Version: 6.00 Build 0)  -->
<svg version="1.1" id="Layer_1" xmlns="http://www.w3.org/2000/svg" xmlns:xlink="http://www.w3.org/1999/xlink" x="0px" y="0px"
	 viewBox="0 0 511.995 511.995" style="enable-background:new 0 0 511.995 511.995;" xml:space="preserve">
<circle style="fill:#006775;" cx="255.997" cy="255.997" r="255.997"/>
<path style="fill:#055661;" d="M293.428,509.223l-175.147-178.7l284.987-173.924l108.509,108.509
	c-4.443,124.502-97.735,226.346-218.349,244.005L293.428,509.223L293.428,509.223z"/>
<path style="fill:#FFDA45;" d="M123.724,141.938h260.331c9.108,0,16.548,7.442,16.548,16.548v153.488
	c0,9.108-7.442,16.548-16.548,16.548h-39.316l-29.099,36.428l-29.099-36.428H123.724c-9.108,0-16.548-7.442-16.548-16.548V158.487
	C107.176,149.38,114.617,141.938,123.724,141.938z"/>
<path style="fill:#00CC96;" d="M159.708,245.338h1.999l11.883-6.442l1.888-7.553c-2.777-2.888-5.776-7.664-8.441-13.66
	c-0.222,0-0.444,0-0.666,0c-3.11,0-6.22-3.443-6.886-7.664c-0.555-3.332,0.555-6.109,2.555-7.219
	c-2.666-13.549-4.443-34.318,18.881-39.427c13.994-3.11,18.992,7.664,19.547,8.885c8.441-4.776,13.883,2.332,15.215,6.109
	c2.555,6.775,1.666,19.436,0.444,25.1c1.444,1.333,2.11,3.776,1.666,6.553c-0.666,4.11-3.665,7.553-6.775,7.664
	c-2.444,5.442-5.887,10.107-9.219,13.549l1.888,7.553h0.111l11.55,6.442h2.221c15.215,0,27.655,11.994,27.655,26.544v21.546H131.943
	v-21.546c0-14.66,12.439-26.544,27.655-26.544L159.708,245.338z"/>
<path style="fill:#FFFFFF;" d="M258.11,180.255h111.841v10.439H258.11V180.255z M258.11,242.783h55.975v10.439H258.11V242.783z
	 M258.11,221.904h111.841v10.439H258.11V221.904z M258.11,201.024h111.841v10.439H258.11V201.024z"/>
<g>
</g>
<g>
</g>
<g>
</g>
<g>
</g>
<g>
</g>
<g>
</g>
<g>
</g>
<g>
</g>
<g>
</g>
<g>
</g>
<g>
</g>
<g>
</g>
<g>
</g>
<g>
</g>
<g>
</g>
</svg>
